# xmcd
#
# Track frame offsets: 
#        150
#        16747
#        32497
#        55220
#        72845
#        100437
#        120170
#        148517
#        163737
#        180990
#
# Disc length: 2666 seconds
#
# Revision: 4
# Processed by: cddbd v1.5.2PL0 Copyright (c) Steve Scherf et al.
# Submitted via: ExactAudioCopy v0.95b4
#
DISCID=770a680a
DTITLE=Johnny Winter - Serious Business
DYEAR=1985
DGENRE=
TTITLE0=Master Mechanic
TTITLE1=Sound The Bell
TTITLE2=Murdering Blues
TTITLE3=It Ain't Your Business
TTITLE4=Good Time Woman
TTITLE5=Unseen Eye
TTITLE6=My Time After Awhile
TTITLE7=Serious As A Heart Attack
TTITLE8=Give It Back
TTITLE9=Route 90
EXTD=YEAR: 1985
EXTT0=
EXTT1=
EXTT2=
EXTT3=
EXTT4=
EXTT5=
EXTT6=
EXTT7=
EXTT8=
EXTT9=
PLAYORDER=
